HIERARCHY
ROOT Hips
{
  OFFSET 7.61835 93.0727 -101.442
  CHANNELS 6 Xposition Yposition Zposition Zrotation Xrotation Yrotation
  JOINT ToSpine
  {
    OFFSET -2.69724 7.43032 -0.144315
    CHANNELS 3 Zrotation Xrotation Yrotation
    JOINT Spine
    {
      OFFSET -0.0310711 10.7595 1.96963
      CHANNELS 3 Zrotation Xrotation Yrotation
      JOINT Spine1
      {
        OFFSET 13.1342 3.43533 0.764692
        CHANNELS 3 Zrotation Xrotation Yrotation
        JOINT Neck
        {
          OFFSET 29.8703 7.82586 -0.130764
          CHANNELS 3 Zrotation Xrotation Yrotation
          JOINT Head
          {
            OFFSET 9.52751 0.295786 -0.907742
            CHANNELS 3 Zrotation Xrotation Yrotation
            End Site
            {
              OFFSET 16.4037 0.713936 2.7358
            }
          }
        }
        JOINT LeftShoulder
        {
          OFFSET 27.5574 4.95586 2.47156
          CHANNELS 3 Zrotation Xrotation Yrotation
          JOINT LeftArm
          {
            OFFSET 1.20734 -0.998971 20.1238
            CHANNELS 3 Zrotation Xrotation Yrotation
            JOINT LeftForeArm
            {
              OFFSET 26.8049 -0.0536703 -0.155908
              CHANNELS 3 Zrotation Xrotation Yrotation
              JOINT LeftHand
              {
                OFFSET 26.6817 0 0.320147
                CHANNELS 3 Zrotation Xrotation Yrotation
                End Site
                {
                  OFFSET 18.6119 0 0.382219
                }
              }
            }
          }
        }
        JOINT RightShoulder
        {
          OFFSET 27.5927 4.71444 -2.65209
          CHANNELS 3 Zrotation Xrotation Yrotation
          JOINT RightArm
          {
            OFFSET 2.83739 -1.17114 -18.7564
            CHANNELS 3 Zrotation Xrotation Yrotation
            JOINT RightForeArm
            {
              OFFSET 28.839 -0.0548439 1.22491
              CHANNELS 3 Zrotation Xrotation Yrotation
              JOINT RightHand
              {
                OFFSET 26.5114 0 -0.101894
                CHANNELS 3 Zrotation Xrotation Yrotation
                End Site
                {
                  OFFSET 18.2168 0 0
                }
              }
            }
          }
        }
      }
    }
  }
  JOINT LeftUpLeg
  {
    OFFSET -4.76168 -1.9167 -10.2353
    CHANNELS 3 Zrotation Xrotation Yrotation
    JOINT LeftLeg
    {
      OFFSET 2.55951 -42.0585 -8.02213
      CHANNELS 3 Zrotation Xrotation Yrotation
      JOINT LeftFoot
      {
        OFFSET 3.16357 -42.5282 -3.95426
        CHANNELS 3 Zrotation Xrotation Yrotation
        JOINT LeftToeBase
        {
          OFFSET 0.346054 -6.02161 12.8035
          CHANNELS 3 Zrotation Xrotation Yrotation
          End Site
          {
            OFFSET 0.134235 -1.35082 5.13018
          }
        }
      }
    }
  }
  JOINT RightUpLeg
  {
    OFFSET -4.94151 -1.41743 10.6446
    CHANNELS 3 Zrotation Xrotation Yrotation
    JOINT RightLeg
    {
      OFFSET -2.56294 -42.0364 -7.94377
      CHANNELS 3 Zrotation Xrotation Yrotation
      JOINT RightFoot
      {
        OFFSET -3.0952 -42.555 -4.02241
        CHANNELS 3 Zrotation Xrotation Yrotation
        JOINT RightToeBase
        {
          OFFSET -0.0828122 -6.13587 12.8035
          CHANNELS 3 Zrotation Xrotation Yrotation
          End Site
          {
            OFFSET -0.131328 -1.35082 5.13018
          }
        }
      }
    }
  }
}
MOTION
Frames:	6
Frame Time:	0.0333333
7.61835 93.0727 -101.442 70.3595 -36.0804 -10.5655 -70.1915 0 88.8779 81.8483 73.1725 2.82664 3.36202 21.9044 4.53206 -116.24 30.0011 154.143 172.944 75.1416 -141.237 0.538431 -14.9707 -20.1772 -62.6151 37.7033 -144.649 25.1885 -4.72187 -99.1784 0.420957 0.000575464 0.35866 -1.88255 6.59636 43.013 -128.515 -11.8958 94.6272 15.1145 -3.85726 75.8942 0.58676 0.00033073 0.0646653 -47.029 8.58579 101.118 -3.43373 49.5659 -4.30195 0.953429 -18.7868 -1.56462 3.19401 -10.3096 17.0472 -38.9284 -14.472 74.5564 1.45593 35.3762 -1.28544 -3.94561 0.706734 0.627751 0.309705 -4.14905 1.40075 
7.64831 93.0885 -101.422 70.3357 -36.0594 -10.5609 -70.1915 0 88.8779 81.819 73.2359 2.69389 3.23993 21.8881 4.82236 -116.39 30.1171 154.196 173.643 75.2723 -141.903 0.520465 -15.0643 -20.3579 -62.6485 37.8755 -144.448 25.335 -4.61313 -98.895 0.420957 0.000575464 0.35866 -1.85006 6.62023 42.4309 -128.649 -12.1272 94.1783 14.9747 -3.8134 75.915 0.58676 0.00033073 0.0646653 -47.0055 8.58291 101.018 -3.4722 49.6072 -4.53476 1.05287 -19.0198 -1.57803 2.90688 -9.98438 17.6756 -38.9835 -14.4465 74.5485 1.49278 35.3134 -0.982539 -3.81962 0.717108 0.610169 0.436257 -4.19936 0.461775 
7.65004 93.0682 -101.424 70.2183 -36.1468 -10.6781 -70.1915 0 88.8779 81.5814 73.2811 2.84597 3.20263 21.9037 4.96203 -116.461 30.2049 154.335 172.849 75.2249 -141.077 0.527443 -14.9833 -20.3993 -62.7097 37.7602 -144.478 24.5807 -4.44692 -98.8735 0.420957 0.000575464 0.35866 -1.84692 6.7446 41.8575 -128.726 -12.4682 93.8517 15.0046 -3.86688 75.7614 0.58676 0.00033073 0.0646653 -46.9506 8.57653 101.065 -3.42911 49.6315 -4.17762 0.380454 -19.2418 -1.62318 2.9887 -9.97766 16.8718 -38.8253 -14.467 74.5365 1.47128 35.346 -1.11589 -3.80432 0.588121 0.613773 0.306872 -3.93341 1.2009 
7.70295 93.1008 -101.396 70.1814 -36.2347 -10.7812 -70.1915 0 88.8779 81.1156 73.2999 3.33361 3.34717 21.9671 4.82584 -116.196 30.0468 154.022 173.622 75.2763 -141.522 0.526545 -14.9691 -20.4557 -62.6226 37.7901 -144.451 25.5285 -4.54299 -98.6732 0.420957 0.000575464 0.35866 -1.87567 6.89873 41.6359 -128.991 -12.6527 93.4555 14.957 -3.84826 75.7795 0.58676 0.00033073 0.0646653 -47.1403 8.51395 101.198 -3.45177 49.4019 -4.66353 0.664778 -18.9819 -1.59085 3.12994 -10.3304 17.8044 -38.8441 -14.5009 74.5111 1.44697 35.3012 -1.18186 -4.07764 0.761279 0.643421 0.318977 -4.1633 1.34323 
7.76251 93.131 -101.348 70.1904 -36.1192 -10.8419 -70.1915 0 88.8779 79.9154 73.2239 4.54187 3.9606 22.0769 4.2025 -115.87 29.4915 152.871 176.313 75.39 -143.586 0.551261 -15.0215 -19.7597 -62.4879 37.9447 -145.104 24.4678 -4.22505 -98.4542 0.420957 0.000575464 0.35866 -1.89757 6.83426 42.2133 -129.153 -12.4886 93.6055 14.937 -3.82053 75.853 0.58676 0.00033073 0.0646653 -47.2157 8.34455 101.097 -3.41506 49.2796 -4.52423 1.07285 -18.9245 -1.57019 2.92295 -9.97185 17.4475 -38.8535 -14.6086 74.5757 1.46478 35.402 -0.926956 -3.92292 0.704826 0.624748 0.391946 -4.0466 0.656912 
7.78825 93.1242 -101.287 70.0966 -36.0215 -10.9099 -70.1915 0 88.8779 80.7506 73.2755 3.69095 3.39651 22.0693 4.40166 -115.45 29.6281 153.081 175.091 75.4145 -142.223 0.512756 -15.2476 -20.0923 -62.4915 37.9807 -144.84 24.935 -4.36503 -98.5542 0.420957 0.000575464 0.35866 -1.96904 7.03991 42.3746 -128.966 -11.9842 93.2337 14.9046 -3.7498 76.0604 0.58676 0.00033073 0.0646653 -47.2029 8.22801 101.005 -3.427 49.2251 -4.62983 0.634604 -19.2581 -1.61359 2.87567 -9.92345 17.5801 -38.7244 -14.6114 74.6619 1.41898 35.4847 -1.08719 -4.00489 0.572548 0.641492 0.380918 -4.16423 0.860157 
